<svg width="512" height="512" viewBox="0 0 658 400" xmlns="http://www.w3.org/2000/svg"><defs><linearGradient id="bg-grad" x1="0%" y1="0%" x2="100%" y2="100%"><stop offset="0%" stop-color="white" stop-opacity="0.3"/><stop offset="100%" stop-color="black" stop-opacity="0.2"/></linearGradient><pattern id="bg-tartan" width="20" height="20" patternUnits="userSpaceOnUse"><rect width="20" height="20" fill="transparent"/><rect width="20" height="4" fill="white" fill-opacity="0.15"/><rect width="4" height="20" fill="white" fill-opacity="0.15"/></pattern></defs><g transform="translate(169, 40) scale(3.2)"><rect width="100" height="100" rx="12" fill="rgb(82, 146, 249)"/><rect width="100" height="100" rx="12" fill="url(#bg-grad)" style="display: none;"/><rect width="100" height="100" rx="12" fill="url(#bg-tartan)" style="display: block;"/><path fill="white" stroke="white" stroke-width="2" stroke-linejoin="round" d="M30,45 C30,30 70,30 70,45 C70,65 50,75 50,75 C50,75 30,65 30,45 M15,35 Q30,40 35,45 M85,35 Q70,40 65,45 M40,55 A2,2 0 1,0 40.1,55 M60,55 A2,2 0 1,0 60.1,55"/></g></svg>